<?xml version="1.0" standalone="no"?>
<!DOCTYPE svg PUBLIC "-//W3C//DTD SVG 20010904//EN"
 "http://www.w3.org/TR/2001/REC-SVG-20010904/DTD/svg10.dtd">
<svg version="1.0" xmlns="http://www.w3.org/2000/svg"
 width="512.000000pt" height="512.000000pt" viewBox="0 0 512.000000 512.000000"
 preserveAspectRatio="xMidYMid meet">
<metadata>
Created by potrace 1.11, written by Peter Selinger 2001-2013
</metadata>
<g transform="translate(0.000000,512.000000) scale(0.100000,-0.100000)"
fill="#000000" stroke="none">
<path d="M959 4801 c-24 -24 -29 -38 -29 -75 0 -25 -3 -46 -7 -47 -5 0 -60 -2
-123 -4 -63 -1 -135 -8 -160 -15 -117 -31 -232 -122 -288 -227 -63 -119 -60
-54 -61 -1511 0 -881 3 -1347 10 -1386 21 -118 98 -240 195 -307 24 -16 74
-42 111 -56 l68 -26 1099 -1 c712 -1 1110 2 1130 9 18 6 37 22 46 40 8 17 16
32 17 34 2 2 21 4 43 4 22 0 42 -2 44 -4 2 -2 6 -49 9 -104 13 -213 105 -422
253 -570 103 -103 234 -182 369 -224 98 -31 142 -36 285 -35 142 2 247 27 369
89 114 57 250 171 310 259 8 12 17 23 20 26 3 3 11 14 18 25 187 313 185 666
-5 972 -33 53 -69 70 -114 54 -29 -10 -34 -9 -60 16 -24 22 -27 32 -22 60 10
52 -3 80 -49 112 -43 29 -43 30 -43 89 1 58 2 60 32 71 20 7 36 23 45 42 17
43 20 2071 2 2169 -27 149 -114 270 -243 338 -145 77 -257 72 -264 -13 -1 -5
-29 -11 -63 -13 -63 -3 -63 -3 -64 25 -3 164 -3 164 -32 189 -61 52 -137 15
-143 -71 -2 -26 -6 -51 -10 -54 -3 -3 -77 -6 -164 -6 -154 0 -159 -1 -184 -24
-14 -14 -26 -33 -26 -43 0 -15 -9 -18 -60 -18 -41 0 -60 4 -60 13 -4 171 -6
179 -34 203 -35 31 -77 31 -113 0 -23 -20 -28 -32 -29 -77 l-2 -54 -165 0
c-161 0 -166 -1 -191 -24 -14 -14 -26 -33 -26 -43 0 -16 -9 -18 -64 -18 l-64
0 -4 101 c-3 93 -5 102 -28 119 -35 27 -81 25 -114 -5 -26 -24 -28 -31 -28
-95 l0 -35 -160 0 c-93 1 -169 -4 -181 -10 -12 -5 -28 -25 -36 -43 -14 -31
-17 -32 -73 -32 l-58 0 0 89 c0 49 -3 97 -6 106 -8 20 -56 45 -87 45 -24 0
-76 -43 -78 -64 -1 -6 -2 -29 -3 -51 l-1 -40 -167 0 c-181 0 -198 -5 -212 -61
-6 -22 -11 -24 -66 -24 -41 0 -60 4 -61 13 0 6 -2 50 -3 96 -2 78 -4 85 -29
107 -39 33 -81 31 -118 -5z"/>
</g>
</svg>
